<svg xmlns="http://www.w3.org/2000/svg" width="640" height="640" viewBox="0 0 640 640" version="1.1">
	<path d="M 325.554 14.539 C 321.183 15.272, 316.458 16.445, 315.054 17.144 C 312.182 18.574, 305.258 23.867, 300 28.652 C 298.075 30.404, 295.150 32.877, 293.500 34.147 C 291.850 35.418, 289.905 37.029, 289.179 37.729 C 287.169 39.662, 286.236 39.331, 281.691 35.077 C 271.457 25.497, 262.320 19.710, 254.107 17.606 C 245.935 15.512, 230.069 15.511, 221.901 17.604 C 214.970 19.380, 213.197 20.219, 207.839 24.263 C 201.920 28.732, 180.108 39.108, 167.500 43.454 C 164.750 44.402, 161.810 45.530, 160.967 45.962 C 160.124 46.393, 157.874 47.080, 155.967 47.488 C 154.060 47.897, 152.050 48.577, 151.500 49 C 150.950 49.423, 148.925 50.098, 147 50.500 C 145.075 50.902, 143.002 51.631, 142.393 52.119 C 141.369 52.941, 139.562 53.402, 126.927 56.063 C 120.647 57.386, 100.871 54.782, 95.764 51.960 C 94.809 51.432, 90.847 51, 86.959 51 C 80.489 51, 79.621 51.253, 76.696 53.992 L 73.500 56.984 73.669 67.070 C 73.825 76.350, 74.065 77.491, 76.668 81.329 C 79.914 86.116, 82.916 91.979, 82.966 93.629 C 83.075 97.251, 101.892 110.751, 114.733 116.420 C 118.469 118.069, 118.901 118.594, 118.414 120.894 C 117.401 125.672, 111.591 141.606, 107.982 149.500 C 98.891 169.389, 97.473 172.702, 95.352 179 C 94.333 182.025, 93.163 184.650, 92.750 184.833 C 92.338 185.017, 92 185.806, 92 186.587 C 92 188.258, 84.846 202.346, 83.750 202.833 C 83.338 203.017, 83 203.609, 83 204.150 C 83 205.705, 77.885 212, 76.621 212 C 75.993 212, 74.266 213.125, 72.783 214.500 C 71.301 215.875, 69.687 217, 69.199 217 C 68.710 217, 67.503 217.891, 66.517 218.981 C 64.126 221.623, 49.985 228.268, 42.500 230.267 C 34.772 232.332, 19.970 235, 16.249 235 C 11.520 235, 4.145 238, 1.920 240.829 C 0.090 243.156, -0.074 244.281, 0.534 250.335 C 0.913 254.112, 1.845 258.394, 2.605 259.851 C 3.366 261.308, 3.990 262.978, 3.994 263.562 C 4.003 265.150, 9.467 275.558, 11.048 277 C 11.350 277.275, 12.675 279.075, 13.994 281 C 15.313 282.925, 17.909 285.961, 19.763 287.746 L 23.133 290.991 20.817 297.246 C 18.803 302.683, 18.500 305.329, 18.500 317.500 C 18.500 328.355, 18.914 332.791, 20.342 337.248 C 21.356 340.410, 22.593 343.249, 23.092 343.557 C 23.592 343.866, 24 344.786, 24 345.602 C 24 347.813, 31.474 357.511, 35.641 360.707 C 37.643 362.243, 40.118 364.288, 41.141 365.250 C 42.163 366.213, 43.450 367, 44 367 C 44.550 367, 45 367.363, 45 367.807 C 45 369.084, 56.819 377.407, 64.500 381.539 C 68.350 383.609, 73.091 386.305, 75.036 387.530 C 76.981 388.754, 80.806 390.764, 83.536 391.996 C 99.149 399.043, 101 400.088, 101 401.853 C 101 402.850, 101.337 404.004, 101.749 404.415 C 102.948 405.615, 104.967 417.615, 105.925 429.239 C 106.918 441.294, 107.355 443.461, 113.390 466.250 C 114.155 469.137, 115.542 475.100, 116.472 479.500 C 117.403 483.900, 118.622 489.005, 119.181 490.845 C 119.741 492.685, 120.567 496.510, 121.018 499.345 C 121.469 502.180, 122.584 508.100, 123.498 512.500 C 124.411 516.900, 125.776 524.100, 126.531 528.500 C 130.345 550.714, 132.196 557.104, 136.529 563.025 C 139.295 566.805, 153.476 580.909, 158.160 584.538 C 163.022 588.306, 181.945 598.309, 192 602.427 C 195.575 603.892, 199.400 605.480, 200.500 605.958 C 207.828 609.142, 218.999 613.173, 228 615.883 C 233.775 617.621, 239.953 619.509, 241.728 620.078 C 246 621.448, 253.790 622.904, 263 624.053 C 267.125 624.568, 273.546 625.442, 277.269 625.995 C 280.991 626.548, 297.249 627, 313.396 627 C 336.808 627, 344.248 626.671, 350.127 625.375 C 354.182 624.481, 357.927 623.356, 358.450 622.875 C 358.972 622.394, 360.121 622, 361.002 622 C 363.278 622, 415.100 595.770, 417.802 593.250 C 418.540 592.563, 419.554 592, 420.056 592 C 421.274 592, 431.409 585.795, 431.833 584.789 C 432.017 584.355, 432.735 584, 433.430 584 C 434.125 584, 435.775 583.073, 437.097 581.939 C 444.212 575.837, 446 574.080, 446 573.192 C 446 572.654, 446.563 571.990, 447.250 571.717 C 447.938 571.443, 449.386 569.483, 450.469 567.360 C 451.552 565.237, 454.364 560.269, 456.719 556.320 C 459.074 552.371, 461 548.685, 461 548.129 C 461 545.509, 463.569 546.226, 469.217 550.423 C 472.604 552.940, 475.928 555, 476.604 555 C 477.280 555, 477.983 555.337, 478.167 555.750 C 478.350 556.163, 480.750 557.541, 483.500 558.813 C 486.250 560.085, 489.281 561.547, 490.236 562.063 C 493.715 563.940, 498.497 563.134, 501.313 560.195 L 504 557.391 504 540.760 C 504 531.614, 504.417 523.034, 504.926 521.694 C 506.644 517.175, 531.083 494, 534.131 494 C 534.609 494, 535.032 495.012, 535.071 496.250 C 535.421 507.327, 536.820 515.882, 538.576 517.681 C 542.169 521.363, 546.043 522.245, 551.034 520.519 C 556.101 518.767, 561.917 515.983, 563.612 514.500 C 564.241 513.950, 565.765 512.825, 567 512 C 572.847 508.093, 586 495.844, 586 494.306 C 586 493.723, 586.663 492.695, 587.474 492.022 C 588.284 491.349, 589.234 489.269, 589.585 487.400 C 589.936 485.530, 590.552 484, 590.956 484 C 591.795 484, 594.097 470.389, 594.756 461.538 C 595.313 454.045, 592.723 442.660, 588.743 435.110 C 587.117 432.025, 585.384 429.072, 584.893 428.550 C 584.402 428.027, 584 427.261, 584 426.847 C 584 425.931, 589.292 424.274, 598 422.463 C 601.575 421.719, 606.750 420.643, 609.500 420.071 C 614.771 418.974, 627 413.206, 627 411.816 C 627 411.367, 627.471 411, 628.048 411 C 630.575 411, 639 399.538, 639 396.101 C 639 388.567, 628.609 382.722, 612.939 381.441 C 605.391 380.824, 600.567 379.115, 596.172 375.500 C 591.567 371.713, 584 363.601, 584 362.452 C 584 361.801, 580.004 356.095, 578.166 354.122 C 576.159 351.967, 575 348.303, 575 344.116 C 575 342.052, 574.370 338.144, 573.599 335.432 C 572.829 332.719, 571.921 326.450, 571.582 321.500 C 568.796 280.783, 563.253 251.088, 555.952 237.764 C 554.358 234.855, 554.817 233.798, 559.750 229.015 C 574.154 215.048, 578.342 205.180, 572.260 199.540 C 570.177 197.609, 568.451 197, 565.060 197 C 562.606 197, 557.878 196.212, 554.553 195.250 C 549.452 193.774, 547.273 192.327, 540.624 186 C 533.614 179.330, 525 168.311, 525 166.013 C 525 165.547, 524.663 165.017, 524.250 164.833 C 523.111 164.327, 519 158.224, 519 157.040 C 519 156.468, 518.663 155.997, 518.250 155.994 C 517.206 155.985, 511.188 145.375, 502.087 127.500 C 499.567 122.550, 497.246 118.275, 496.929 118 C 496.613 117.725, 496.046 116.825, 495.668 116 C 495.291 115.175, 494.028 112.925, 492.860 111 C 488.843 104.376, 485.145 96.486, 483.016 90 C 481.842 86.425, 480.234 82.306, 479.441 80.846 C 478.648 79.386, 478 77.662, 478 77.015 C 478 73.545, 461.096 53, 458.241 53 C 457.558 53, 457 52.643, 457 52.207 C 457 51.771, 454.413 50.533, 451.250 49.457 C 446.323 47.780, 442.851 47.509, 427 47.564 C 405.165 47.640, 397.066 49.192, 387.232 55.182 C 383.785 57.282, 380.388 59, 379.683 59 C 378.978 59, 377.814 57.313, 377.096 55.250 C 374.598 48.076, 367.654 34.603, 365.383 32.523 C 364.769 31.960, 363.419 29.938, 362.383 28.028 C 359.312 22.366, 353.796 16.875, 349.167 14.874 C 344.116 12.690, 337.159 12.591, 325.554 14.539 M 343.500 160.354 C 341.850 161.150, 338.599 162.634, 336.276 163.651 C 333.952 164.668, 332.040 165.731, 332.026 166.014 C 332.012 166.297, 333.837 167.647, 336.083 169.014 C 338.328 170.381, 340.815 172.738, 341.608 174.250 C 342.402 175.762, 343.715 177, 344.526 177 C 345.337 177, 346 177.450, 346 178 C 346 178.550, 346.653 179, 347.450 179 C 348.248 179, 349.260 179.628, 349.700 180.396 C 350.714 182.165, 357.526 185.627, 361.658 186.472 L 364.817 187.119 364.291 174.809 C 363.981 167.559, 363.287 161.989, 362.603 161.256 C 360.751 159.274, 347.078 158.629, 343.500 160.354 M 387.630 176.250 C 387.299 177.488, 387.021 180.097, 387.014 182.050 C 387.006 184.003, 386.581 186.028, 386.069 186.550 C 385.556 187.072, 384.823 190.313, 384.439 193.750 C 383.744 199.976, 383.751 200, 386.312 200 C 387.725 200, 389.129 200.399, 389.430 200.887 C 389.731 201.374, 391.670 202.090, 393.739 202.476 C 395.808 202.863, 397.950 203.544, 398.500 203.990 C 399.050 204.436, 404.675 206.478, 411 208.528 C 437.982 217.271, 446.950 221.075, 465.485 231.637 L 474.500 236.774 498.269 237.300 L 522.039 237.825 523.545 234.913 C 525.048 232.006, 525.045 232, 522.026 232 C 520.362 232, 519 231.550, 519 231 C 519 230.450, 518.212 229.985, 517.250 229.966 C 516.288 229.947, 513.700 229.063, 511.500 228 C 509.300 226.937, 506.931 226.053, 506.236 226.034 C 505.541 226.015, 504.191 225.558, 503.236 225.017 C 502.281 224.477, 497.900 222.416, 493.500 220.438 C 485.141 216.680, 477.933 213.268, 456.866 203.099 C 449.917 199.744, 443.781 197, 443.230 197 C 442.679 197, 440.940 196.328, 439.364 195.506 C 437.789 194.685, 435.712 194.010, 434.750 194.006 C 433.788 194.003, 433 193.550, 433 193 C 433 192.450, 432.485 192, 431.855 192 C 431.225 192, 427.435 190.425, 423.433 188.500 C 419.431 186.575, 415.671 185, 415.078 185 C 414.485 185, 414 184.550, 414 184 C 414 183.450, 413.438 182.985, 412.750 182.966 C 412.063 182.947, 409.700 182.063, 407.500 181 C 405.300 179.937, 403.160 179.053, 402.745 179.034 C 402.330 179.015, 399.658 177.875, 396.808 176.500 C 390.408 173.413, 388.405 173.358, 387.630 176.250 M 209.497 200.618 C 202.258 207.872, 193.134 215.188, 183.200 221.702 C 174.249 227.571, 160.827 240.013, 158.973 244.160 C 158.397 245.447, 156.368 249.410, 154.463 252.967 C 152.558 256.523, 151 259.786, 151 260.217 C 151 260.647, 160.900 261, 173 261 C 194.834 261, 201.862 259.829, 187.750 258.542 C 180.223 257.855, 175.030 256.375, 173.765 254.557 C 172.776 253.134, 172.831 246.815, 173.846 245.215 C 175.701 242.291, 185.739 242.748, 203 246.542 C 207.125 247.449, 214.464 248.485, 219.309 248.845 C 227.107 249.425, 228.345 249.787, 230.091 252 C 231.464 253.739, 231.921 255.489, 231.595 257.750 L 231.126 261 271.076 261 C 294.167 261, 311.760 260.603, 312.764 260.058 C 315.518 258.565, 327.132 253.255, 331.308 251.580 C 333.403 250.741, 337.350 249.757, 340.081 249.395 C 342.811 249.033, 345.286 248.346, 345.581 247.868 C 346.595 246.228, 351.625 247.002, 353.933 249.152 C 355.928 251.011, 356.165 251.961, 355.671 256.131 L 355.099 260.957 396.800 261.229 C 419.735 261.378, 439.116 261.725, 439.870 262 C 440.728 262.313, 441.661 261.343, 442.370 259.401 C 443.571 256.108, 446.220 253, 447.826 253 C 449.308 253, 458.047 244.885, 457.507 244.011 C 457.246 243.589, 455.563 242.501, 453.766 241.594 C 451.970 240.687, 449.825 239.509, 449 238.976 C 446.011 237.047, 434.138 232, 432.588 232 C 431.715 232, 431 231.586, 431 231.079 C 431 230.573, 429.538 229.846, 427.750 229.464 C 425.962 229.082, 424.050 228.423, 423.500 228 C 422.950 227.577, 420.925 226.917, 419 226.534 C 417.075 226.150, 412.274 224.748, 408.332 223.418 C 399.980 220.601, 399 220.499, 399 222.449 C 399 223.246, 397.489 225.050, 395.643 226.459 C 391.979 229.253, 382.923 230.911, 371 230.970 C 363.191 231.009, 347.877 229.061, 346.550 227.860 C 346.027 227.387, 344.677 226.985, 343.550 226.966 C 342.422 226.947, 339.700 226.063, 337.500 225 C 335.300 223.937, 333.141 223.053, 332.702 223.034 C 329.312 222.890, 311.051 207.408, 310.967 204.607 C 310.948 203.998, 310.030 202.414, 308.925 201.088 L 306.917 198.675 303.166 202.338 C 301.103 204.352, 299.049 206, 298.602 206 C 298.154 206, 296.148 207.279, 294.144 208.842 C 290.417 211.749, 280.024 217, 277.997 217 C 276.198 217, 266.774 221.166, 263.554 223.385 C 258.569 226.820, 254.070 228.814, 249.692 229.526 C 247.386 229.902, 243.043 230.837, 240.040 231.604 C 233.758 233.210, 214.383 233.476, 210.527 232.010 C 205.484 230.093, 203 226.246, 203 220.354 C 203 217.409, 203.450 215, 204 215 C 204.550 215, 205.008 214.438, 205.017 213.750 C 205.027 213.063, 206.117 211.474, 207.440 210.219 C 210.759 207.073, 215.199 199.271, 214.813 197.265 C 214.574 196.029, 213.232 196.875, 209.497 200.618 M 468 265.164 C 466.075 265.692, 462.565 266.478, 460.200 266.911 C 457.542 267.397, 455.314 268.535, 454.365 269.889 C 451.551 273.907, 448.650 276, 445.895 276 C 444.394 276, 442.968 275.438, 442.724 274.750 C 442.257 273.430, 440.015 280.345, 440.006 283.136 C 440.003 284.035, 439.328 286.060, 438.506 287.636 C 437.685 289.211, 437.010 291.423, 437.006 292.550 C 437.003 293.678, 436.614 295.028, 436.143 295.550 C 435.672 296.072, 434.236 299.875, 432.952 304 C 431.668 308.125, 430.107 312.175, 429.483 313 C 427.215 315.999, 423.087 325.673, 420.947 333 C 419.743 337.125, 418.362 340.928, 417.879 341.450 C 417.395 341.972, 416.997 343.097, 416.994 343.950 C 416.990 344.803, 416.315 346.789, 415.494 348.364 C 414.672 349.940, 413.994 351.965, 413.987 352.864 C 413.968 355.332, 410.092 367.208, 408.526 369.600 C 407.051 371.853, 399.206 374.965, 389.500 377.150 C 381.170 379.024, 341.244 379.024, 335 377.149 C 328.116 375.081, 320.944 371.869, 316.298 368.771 C 311.154 365.342, 301.768 356.229, 296.451 349.500 C 294.278 346.750, 292.275 344.275, 291.999 344 C 291.036 343.039, 287 334.271, 287 333.140 C 287 332.513, 286.550 332, 286 332 C 285.450 332, 285 331.186, 285 330.191 C 285 329.196, 284.339 327.509, 283.532 326.441 C 282.724 325.374, 282.049 323.712, 282.032 322.750 C 282.014 321.788, 281.622 321, 281.160 321 C 280.698 321, 280.030 332.309, 279.674 346.131 C 279.319 359.953, 278.590 371.789, 278.054 372.435 C 277.519 373.080, 276.595 376.959, 276.001 381.054 C 273.526 398.129, 272.057 407.677, 271.465 410.537 C 270.780 413.841, 272.312 415.145, 278.468 416.496 C 280.100 416.854, 283.700 418.167, 286.468 419.413 C 289.235 420.659, 292.714 422.180, 294.197 422.794 C 299.755 425.092, 302.614 434.814, 298.842 438.587 C 296.277 441.152, 290.138 440.674, 287.617 437.713 C 285.351 435.051, 279.857 432.331, 271 429.485 C 267.975 428.513, 264.032 426.630, 262.238 425.299 C 258.456 422.494, 255.643 416.560, 256.492 413.177 C 257.047 410.965, 258.996 397.353, 261.048 381.362 C 261.552 377.437, 262.432 372.994, 263.004 371.489 C 264.466 367.644, 266.401 332.539, 265.263 330.505 C 264.501 329.143, 263.587 329.744, 259.660 334.189 C 257.079 337.110, 254.636 339.950, 254.231 340.500 C 251.364 344.393, 242.604 354.562, 241.884 354.833 C 241.398 355.017, 241 355.804, 241 356.583 C 241 357.363, 240.649 358, 240.220 358 C 239.791 358, 237.715 360.380, 235.608 363.288 C 233.501 366.196, 230.194 369.614, 228.259 370.882 C 225 373.019, 223.744 373.181, 211.120 373.095 C 203.628 373.045, 195.924 372.549, 193.999 371.993 C 190.678 371.033, 177.613 368.822, 164.500 366.999 C 154.816 365.653, 150.995 363.886, 145.047 358 C 139.712 352.721, 132 339.550, 132 335.718 C 132 334.838, 131.592 333.866, 131.094 333.558 C 130.595 333.250, 129.878 330.748, 129.500 327.999 C 129.122 325.249, 128.405 323, 127.906 323 C 127.408 323, 127 322.056, 127 320.901 C 127 319.747, 126.388 317.384, 125.641 315.651 C 122.734 308.914, 121.737 306.253, 119.405 299.006 C 118.077 294.878, 116.580 290.600, 116.080 289.500 C 115.579 288.400, 114.368 285.137, 113.387 282.250 C 111.459 276.570, 111.842 276.763, 102.128 276.594 L 96.757 276.500 97.258 284.590 C 97.533 289.040, 98.264 293.624, 98.881 294.778 C 100.485 297.774, 102.063 312.790, 102.858 332.623 C 103.260 342.654, 104.005 350.316, 104.657 351.123 C 105.268 351.880, 106.098 354.075, 106.500 356 C 106.902 357.925, 107.589 359.950, 108.028 360.500 C 108.466 361.050, 109.277 364.875, 109.830 369 C 110.383 373.125, 111.739 380.325, 112.844 385 C 117.386 404.218, 119.994 419.450, 120.907 432.079 C 121.327 437.898, 122.044 443.263, 122.501 444.002 C 122.958 444.741, 123.693 446.956, 124.134 448.923 C 124.871 452.207, 126.318 458.161, 128.891 468.500 C 131.209 477.815, 135.164 495.222, 135.976 499.683 C 136.457 502.333, 137.584 508.325, 138.480 513 C 140.512 523.606, 142.580 534.688, 143.984 542.500 C 144.577 545.800, 145.703 549.875, 146.486 551.556 C 148.960 556.865, 170.669 577, 173.920 577 C 174.435 577, 175.452 577.563, 176.179 578.250 C 178.062 580.031, 202.968 591.992, 204.820 592.005 C 205.862 592.012, 216.960 596.626, 217.690 597.356 C 218.044 597.710, 219.107 598, 220.052 598 C 220.998 598, 223.060 598.672, 224.636 599.494 C 226.211 600.315, 228.486 600.990, 229.691 600.994 C 230.896 600.997, 232.129 601.399, 232.430 601.887 C 232.731 602.374, 234.670 603.081, 236.739 603.458 C 238.808 603.834, 242.525 604.765, 245 605.526 C 252.061 607.698, 263.457 610, 267.150 610 C 269 610, 272.085 610.456, 274.007 611.014 C 276.038 611.603, 291.579 612.052, 311.148 612.088 C 351.665 612.161, 347.838 613.017, 381 596.472 C 390.005 591.979, 393.335 590.193, 407.500 582.260 C 410.800 580.412, 414.738 578.374, 416.250 577.731 C 417.762 577.088, 419 576.210, 419 575.781 C 419 575.351, 419.427 575, 419.950 575 C 421.545 575, 430.318 568.807, 433.500 565.434 C 436.820 561.915, 437.498 560.862, 442.668 551.190 C 444.635 547.511, 446.774 543.825, 447.422 543 C 448.069 542.175, 449.477 539.707, 450.550 537.515 C 451.622 535.324, 453.063 532.929, 453.750 532.194 C 454.438 531.459, 455 530.471, 455 529.998 C 455 529.526, 456.350 526.223, 458 522.658 C 459.650 519.093, 461 515.552, 461 514.788 C 461 514.025, 461.398 512.972, 461.883 512.450 C 462.369 511.927, 463.258 508.800, 463.857 505.500 C 464.457 502.200, 465.637 496.575, 466.480 493 C 467.323 489.425, 468.661 482, 469.455 476.500 C 471.161 464.673, 472.955 455.890, 473.948 454.500 C 474.341 453.950, 475.446 449.675, 476.403 445 C 477.360 440.325, 478.591 434.772, 479.138 432.660 C 480.450 427.602, 481.905 419.550, 483.505 408.500 C 484.221 403.550, 485.290 397.700, 485.880 395.500 C 487.494 389.480, 487.313 384, 485.500 384 C 484.675 384, 484 383.657, 484 383.237 C 484 382.480, 482.522 381.604, 476.236 378.633 C 474.441 377.785, 472.716 376.422, 472.402 375.606 C 472.089 374.790, 470.414 373.811, 468.681 373.430 C 463.228 372.232, 461.067 369.982, 461.031 365.466 C 461.005 362.057, 461.450 361.165, 463.904 359.716 C 467.464 357.613, 468.957 357.575, 472.636 359.494 C 476.133 361.318, 479.626 361.429, 480.700 359.750 C 481.140 359.063, 484.650 356.928, 488.500 355.007 C 496.372 351.078, 499 349.144, 499 347.278 C 499 346.575, 499.401 346, 499.892 346 C 500.382 346, 501.093 344.767, 501.471 343.260 C 501.849 341.753, 502.460 340.291, 502.829 340.010 C 503.712 339.338, 510.445 329.141, 511.954 326.188 C 513.855 322.471, 513.595 297.373, 511.609 292.782 C 510.724 290.737, 510 288.187, 510 287.115 C 510 283.152, 506.009 276.054, 500.810 270.771 C 496.219 266.106, 494.769 265.240, 490.590 264.667 C 483.895 263.750, 472.224 264.006, 468 265.164 M 127.518 276.971 C 127.188 277.504, 127.612 279.282, 128.459 280.921 C 129.307 282.560, 130.014 284.711, 130.032 285.700 C 130.049 286.690, 130.724 288.374, 131.532 289.441 C 132.339 290.509, 133 292.145, 133 293.077 C 133 294.009, 133.672 296.060, 134.494 297.636 C 135.315 299.211, 135.990 301.197, 135.994 302.050 C 135.997 302.902, 136.381 304.027, 136.848 304.550 C 137.800 305.617, 143.441 322.754, 144.476 327.726 C 145.293 331.645, 150.551 342.694, 152.552 344.695 C 153.348 345.491, 154 346.516, 154 346.973 C 154 349.235, 161.386 351.734, 173 353.399 C 179.875 354.385, 188.200 355.795, 191.500 356.531 C 199.286 358.269, 214.021 359.406, 218.316 358.601 C 220.805 358.133, 222.536 356.782, 224.953 353.415 C 226.752 350.911, 229.186 347.814, 230.362 346.534 C 234.204 342.350, 236.488 339.558, 238.977 336 C 240.324 334.075, 241.927 332.050, 242.539 331.500 C 243.519 330.618, 252.240 320.214, 254.261 317.516 C 254.679 316.957, 256.359 314.925, 257.995 313 C 259.630 311.075, 260.975 309.223, 260.984 308.886 C 260.993 308.548, 262.345 306.748, 263.989 304.886 C 268.562 299.706, 273 288.222, 273 281.570 L 273 276 200.559 276 C 154.805 276, 127.897 276.358, 127.518 276.971 M 288.296 278.750 C 288.799 281.394, 289.225 283.989, 292.612 305 C 293.454 310.225, 294.786 315.694, 295.571 317.154 C 296.357 318.614, 297 320.527, 297 321.404 C 297 322.282, 297.414 323, 297.921 323 C 298.427 323, 299.138 324.350, 299.500 326 C 299.862 327.650, 300.524 329, 300.971 329 C 301.418 329, 302.087 330.211, 302.458 331.691 C 303.309 335.080, 307.567 340.496, 316.500 349.550 C 323.949 357.100, 326.967 359.003, 336.500 362.162 C 344.863 364.933, 376.406 364.955, 388.500 362.197 C 397.251 360.202, 398.956 358.594, 398.985 352.309 C 398.993 350.554, 399.399 348.871, 399.887 348.570 C 400.374 348.269, 401.066 346.461, 401.424 344.553 C 401.782 342.645, 402.730 339.828, 403.531 338.292 C 404.332 336.757, 404.990 334.739, 404.994 333.809 C 404.997 332.879, 405.415 331.861, 405.923 331.548 C 406.431 331.234, 407.147 329.520, 407.516 327.739 C 408.385 323.536, 411.335 314.643, 412.075 314 C 413.324 312.913, 418.882 300.807, 419.536 297.749 C 419.918 295.962, 420.577 294.050, 421 293.500 C 421.423 292.950, 422.098 290.925, 422.500 289 C 422.902 287.075, 423.589 285.050, 424.026 284.500 C 424.463 283.950, 425.136 281.813, 425.522 279.750 L 426.223 276 356.998 276 L 287.773 276 288.296 278.750 M 77.938 278.575 C 76.774 279.978, 76.825 280.399, 78.288 281.468 C 80.668 283.209, 80.593 290.153, 78.171 292.345 C 75.979 294.329, 70.663 294.519, 68.821 292.681 C 66.909 290.771, 59.007 289, 52.402 289 C 47.745 289, 46.024 289.500, 43.094 291.705 C 36.629 296.571, 34.298 300.844, 32.958 310.297 C 31.942 317.458, 33.096 332.142, 34.851 334.384 C 35.331 334.998, 35.995 336.637, 36.325 338.027 C 37.166 341.562, 43.056 348.162, 50.332 353.723 C 53.724 356.316, 57.063 358.982, 57.751 359.648 C 59.362 361.208, 73.454 370, 74.343 370 C 74.714 370, 76.881 371.350, 79.159 373 C 81.436 374.650, 83.908 376, 84.650 376 C 85.393 376, 86 376.414, 86 376.921 C 86 377.427, 87.345 378.136, 88.989 378.497 C 90.632 378.858, 92.234 379.569, 92.548 380.077 C 93.288 381.274, 97 381.280, 97 380.083 C 97 379.579, 96.451 378.984, 95.779 378.760 C 94.986 378.495, 94.501 375.756, 94.394 370.926 C 94.291 366.301, 93.622 362.368, 92.620 360.500 C 91.736 358.850, 91.010 356.802, 91.006 355.950 C 91.003 355.097, 90.466 353.866, 89.814 353.214 C 89.026 352.426, 88.384 345.053, 87.903 331.264 C 87.214 311.511, 85.840 298.116, 84.247 295.635 C 83.847 295.011, 83.059 290.710, 82.496 286.079 C 81.451 277.477, 80.351 275.667, 77.938 278.575 M 354.450 294.907 C 353.019 296.274, 335.939 298.760, 323.384 299.428 C 312.187 300.024, 306.920 301.542, 304.282 304.934 C 302.301 307.480, 302.818 310.546, 305.718 313.445 C 307.896 315.624, 309.038 316.044, 311.468 315.565 C 313.136 315.237, 317.762 314.691, 321.750 314.352 L 329 313.737 329 321.029 C 329 327.962, 329.157 328.462, 332.180 331.161 C 334.975 333.656, 336.140 334, 341.795 334 C 346.869 334, 349.262 333.438, 353.115 331.341 C 355.802 329.879, 358 328.079, 358 327.341 C 358 326.603, 358.406 326, 358.902 326 C 360.294 326, 362 320.179, 362 315.433 C 362 307.896, 361.819 308, 374.952 308 C 388.268 308, 390 307.174, 390 300.826 C 390 294.562, 388.424 294, 370.871 294 C 362.362 294, 354.972 294.408, 354.450 294.907 M 154.323 295.656 C 151.164 296.329, 149.800 298.442, 149.800 302.663 C 149.800 308.462, 151.304 309, 167.524 309 C 175.303 309, 181.961 309.294, 182.320 309.653 C 182.679 310.013, 182.021 311.848, 180.856 313.732 C 178.057 318.262, 177.899 324.380, 180.517 326.847 C 183.671 329.819, 190.562 332.001, 196.770 331.993 C 207.060 331.982, 212.975 325.535, 212.994 314.309 C 212.997 312.554, 213.466 310.830, 214.035 310.479 C 214.604 310.127, 219.131 310.367, 224.096 311.013 C 235.613 312.509, 237.720 312.009, 238.551 307.579 C 239.491 302.569, 238.461 300.579, 233.737 298.278 C 229.760 296.342, 227.256 296.184, 193 295.704 C 172.925 295.423, 155.520 295.402, 154.323 295.656 M 349.500 482.841 C 347.850 483.754, 346.275 484.740, 346 485.034 C 344.490 486.646, 336.188 493, 335.591 493 C 334.735 493, 325.326 497.694, 318.500 501.527 C 313.766 504.185, 312.701 504.356, 298.500 504.747 C 290.250 504.975, 280.125 504.673, 276 504.078 C 256.876 501.316, 245.546 498.813, 243.550 496.907 C 243.027 496.408, 241.990 496, 241.245 496 C 240.500 496, 237.777 495.075, 235.195 493.945 C 232.613 492.815, 229.600 491.496, 228.500 491.013 C 227.400 490.530, 224.700 489.392, 222.500 488.484 C 220.300 487.576, 217.007 486.188, 215.182 485.400 C 212.208 484.116, 211.555 484.150, 208.891 485.724 C 205.624 487.653, 204.443 490.644, 205.416 494.522 C 205.901 496.454, 207.785 497.856, 213.478 500.522 C 217.564 502.435, 221.178 504, 221.509 504 C 222.181 504, 230.658 507.610, 233.033 508.908 C 233.876 509.369, 236.013 510.064, 237.783 510.452 C 239.552 510.841, 241 511.494, 241 511.903 C 241 513.298, 265.543 517.769, 280.500 519.099 C 294.071 520.306, 313.962 519.423, 317.752 517.446 C 319.263 516.657, 321.071 516.010, 321.770 516.006 C 322.468 516.003, 324.718 514.971, 326.770 513.714 C 328.821 512.457, 334.095 509.679, 338.489 507.541 C 342.883 505.404, 347.833 502.384, 349.489 500.832 C 351.145 499.279, 353.063 498.007, 353.750 498.005 C 354.438 498.002, 355 497.550, 355 497 C 355 496.450, 355.450 496, 356 496 C 358.230 496, 361 491.889, 361 488.582 C 361 485.779, 360.393 484.788, 357.632 483.082 C 353.711 480.658, 353.462 480.651, 349.500 482.841" stroke="none" fill="#000000" fill-rule="evenodd"/>
</svg>